<svg viewBox="0 0 520 380" fill="none" xmlns="http://www.w3.org/2000/svg">
<g id="upload-illustration">
<g id="elemen-lingkaran-kiri">
<path id="Vector" opacity="0.5" d="M150.172 150.959C148.486 249.66 1.67108 249.644 0 150.956C1.68537 52.259 148.5 52.2748 150.172 150.959Z" fill="#DBE3FE"/>
<path id="Vector_2" opacity="0.6" d="M219.186 262.539C216.725 406.599 2.43913 406.577 0 262.535C2.45982 118.48 216.746 118.502 219.186 262.539Z" fill="#DBE3FE"/>
</g>
<g id="elemen-lingkaran-kanan">
<path id="Vector_3" opacity="0.6" d="M292.635 262.539C295.095 406.599 509.381 406.577 511.82 262.535C509.36 118.48 295.074 118.502 292.635 262.539Z" fill="#DBE3FE"/>
<path id="Vector_4" opacity="0.5" d="M361.648 150.959C363.334 249.66 510.149 249.644 511.82 150.956C510.135 52.259 363.32 52.2748 361.648 150.959Z" fill="#DBE3FE"/>
</g>
<g id="elemen-lingkaran-tengah" opacity="0.3">
<path id="Vector_5" opacity="0.8" d="M442.992 185.39C438.793 431.262 73.0638 431.224 68.9004 185.382C73.0993 -60.4814 438.829 -60.4429 442.992 185.39Z" fill="#93ACFD"/>
</g>
<g id="elemen-bayangan">
<path id="Vector_6" opacity="0.5" d="M459.319 373.022C470.54 382.326 41.2799 382.326 52.5055 373.02C41.2838 363.718 470.544 363.717 459.319 373.022Z" fill="#3B67F6"/>
</g>
<g id="elemen-daun-kanan">
<g id="Group" opacity="0.8">
<path id="Vector_7" d="M410.001 317.941C412.186 302.634 424.221 291.296 438.809 287.375C466.031 279.43 468.572 259.104 472.201 269.267C475.831 279.43 468.209 290.406 474.742 298.348C481.276 306.289 476.08 321.172 465.611 324.438C455.142 327.705 417.659 352.561 417.659 372.437C417.659 372.437 389.469 372.437 389.445 372.437C388.002 372.437 388 361.568 388.059 360.755C388.613 343.498 405.956 333.865 410.001 317.941Z" fill="#93ACFD"/>
<g id="Group_2" opacity="0.8">
<path id="Vector_8" d="M430.387 330.839C429.799 321.076 434.301 311.282 441.616 304.836C445.773 301.159 450.41 298.479 454.439 294.909C457.611 292.281 461.184 289.75 462.975 285.924C460.673 292.387 453.463 297.393 448.301 301.644C438.426 308.272 431.208 318.775 430.387 330.839Z" fill="white"/>
</g>
</g>
<g id="Group_3">
<path id="Vector_9" d="M510.176 335.724C506.26 347.997 495.593 354.826 483.449 357.517C448.913 365.164 432.745 369.993 427.374 371.72C424.871 373.122 398.146 372.181 394.885 372.437C404.207 350.757 402.893 312.987 450.538 316.228C482.478 322.26 494.576 298.83 502.321 292.153C503.961 290.738 510.207 284.738 511.184 289.519C507.917 304.937 514.61 320.335 510.176 335.724Z" fill="#3B67F6"/>
<path id="Vector_10" d="M498.332 316.452C492.248 339.797 463.484 340.351 443.786 342.144C431.676 343.584 419.306 350.881 416.301 363.391C417.865 350.175 430.652 341.658 443.028 339.872C462.544 337.353 489.989 338.43 498.332 316.452Z" fill="#3B67F6"/>
<path id="Vector_11" opacity="0.8" d="M498.332 316.452C492.248 339.797 463.484 340.351 443.786 342.144C431.676 343.584 419.306 350.881 416.301 363.391C417.865 350.175 430.652 341.658 443.028 339.872C462.544 337.353 489.989 338.43 498.332 316.452Z" fill="white"/>
</g>
</g>
<g id="elemen-daun-kiri">
<g id="Group_4" opacity="0.8">
<path id="Vector_12" d="M101.824 317.941C99.639 302.634 87.6045 291.296 73.0165 287.375C45.7944 279.43 43.2538 259.104 39.6239 269.267C35.9941 279.43 43.6164 290.406 37.0833 298.348C30.5497 306.289 35.7458 321.172 46.2147 324.438C56.6836 327.705 94.1661 352.561 94.1661 372.437C94.1661 372.437 122.356 372.437 122.38 372.437C123.824 372.437 123.825 361.568 123.766 360.755C123.213 343.498 105.87 333.865 101.824 317.941Z" fill="#93ACFD"/>
<g id="Group_5" opacity="0.8">
<path id="Vector_13" d="M81.4391 330.839C82.0274 321.076 77.526 311.282 70.2106 304.836C66.0531 301.159 61.4162 298.48 57.3873 294.909C54.2156 292.281 50.6424 289.75 48.8516 285.924C51.1537 292.387 58.3637 297.393 63.5258 301.644C73.401 308.272 80.6189 318.775 81.4391 330.839Z" fill="white"/>
</g>
</g>
<g id="Group_6">
<path id="Vector_14" d="M1.64432 335.724C5.55993 347.997 16.2269 354.826 28.3713 357.517C62.9068 365.164 79.0752 369.993 84.4456 371.72C86.9488 373.122 113.674 372.181 116.935 372.437C107.613 350.757 108.927 312.987 61.2815 316.228C29.3423 322.26 17.2437 298.83 9.49869 292.153C7.85865 290.738 1.61278 284.738 0.636344 289.519C3.90264 304.937 -2.79105 320.335 1.64432 335.724Z" fill="#3B67F6"/>
<path id="Vector_15" d="M13.4902 316.452C19.5735 339.797 48.3376 340.351 68.0359 342.144C80.1463 343.584 92.5159 350.881 95.521 363.391C93.9564 350.175 81.1696 341.658 68.7941 339.872C49.2776 337.353 21.8323 338.43 13.4902 316.452Z" fill="#3B67F6"/>
<path id="Vector_16" opacity="0.8" d="M13.4902 316.452C19.5735 339.797 48.3376 340.351 68.0359 342.144C80.1463 343.584 92.5159 350.881 95.521 363.391C93.9564 350.175 81.1696 341.658 68.7941 339.872C49.2776 337.353 21.8323 338.43 13.4902 316.452Z" fill="white"/>
</g>
</g>
<g id="elemen-lingkaran-kiri_2" opacity="0.8">
<g id="Group_7">
<path id="Vector_17" d="M53.9925 248.545C51.949 247.937 54.2581 246.195 55.0739 245.02C63.6599 234.813 75.2604 221.514 84.6464 210.563C81.2299 214.037 77.4606 217.888 73.8617 221.566C49.1192 246.848 48.897 246.85 48.2378 246.853C47.1486 246.777 47.2806 245.593 47.9176 245.024C58.7358 232.185 73.6558 215.75 85.0593 202.504C75.0377 212.688 61.205 227.027 51.6903 236.628C41.9634 245.974 43.1275 245.955 41.3013 245.422C40.6554 244.776 41.1229 244.214 43.0921 241.847C53.9428 229.1 69.483 212.105 81.219 198.697C71.6822 208.158 34.4706 246.834 37.3837 242.566C37.1644 242.569 36.9462 242.48 36.792 242.325C36.1506 241.684 36.5437 241.216 38.7252 238.623C49.3852 226.19 64.2146 209.948 75.8008 196.834C72.0079 200.695 67.8001 205 63.785 209.109C35.7037 237.844 34.1115 239.216 33.3129 239.221C31.6664 238.63 32.3148 238.119 34.7012 235.219C45.5947 222.532 60.7828 205.876 72.5843 192.518C66.9666 198.181 60.2625 204.993 54.2334 211.12C30.1101 235.632 30.0343 235.633 29.4436 235.635C29.2293 235.652 29.0125 235.548 28.8588 235.395C28.0085 233.799 30.6082 232.221 31.7719 230.375C40.6716 219.859 52.4677 206.76 62.6696 195.279C54.5876 203.199 30.9811 228.469 26.3123 231.254C26.0945 231.254 25.8649 231.162 25.7112 231.008C24.9378 229.713 26.5985 228.954 27.3902 227.684C38.3399 214.983 54.0048 197.753 65.632 184.496C61.0453 189.155 55.6158 194.728 50.4858 199.992C25.4871 225.646 24.1515 226.789 23.376 226.794C21.7503 226.239 22.4031 225.655 24.5998 222.966C34.4765 211.336 48.1427 196.226 58.9304 183.912C54.699 188.188 49.8823 193.079 45.3046 197.728C21.2764 222.128 21.1852 222.128 20.5906 222.131C19.2343 221.717 19.5038 221.18 21.0754 219.375C31.3043 207.45 45.3203 191.721 55.7966 179.475C50.6366 184.421 18.9367 217.461 20.1107 215.217C19.893 215.218 19.6806 215.131 19.5269 214.977C18.7362 213.724 20.5004 212.814 21.2867 211.498C28.7484 202.421 38.6227 190.906 46.9919 180.994C44.2818 183.762 41.3988 186.722 38.7281 189.465C19.4417 208.754 20.899 208.721 18.8643 208.19C17.8568 206.799 21.9611 203.382 23.4529 201.011C27.9942 195.338 34.679 187.148 39.776 180.848C13.5028 208.576 16.9001 202.01 30.0525 183.118C27.5148 185.691 27.4557 185.691 27.1089 185.693C26.3162 185.718 25.9797 184.601 26.6645 184.19C27.0557 183.844 29.2012 181.661 30.7806 180.053C34.5824 176.184 34.5824 176.184 34.979 176.182C37.1191 176.844 34.379 179.126 33.6114 180.73C31.2038 184.358 27.5478 189.724 24.8762 193.719C28.6593 190.132 50.0365 167.508 48.7783 169.859C50.1671 170.274 49.8089 170.858 48.3048 172.779C42.1964 180.585 33.9676 190.53 27.2739 198.859C30.422 195.656 34.0893 191.89 37.5596 188.327C56.977 168.387 57.1746 168.386 57.8288 168.382C58.8831 168.449 58.8048 169.602 58.1756 170.158C50.3439 179.731 40.0381 191.636 31.4437 201.877C90.3386 140.938 59.1782 179.183 34.881 205.981C37.8896 202.933 41.0746 199.699 44.1424 196.583C70.1826 170.14 70.326 170.14 70.9295 170.137C72.5493 170.708 71.8744 171.288 69.6515 174.02C59.5506 185.922 45.4721 201.481 34.4903 214.025C39.0109 209.431 44.3074 203.995 49.3177 198.854C74.2632 173.254 75.5959 172.113 76.3689 172.108C78.039 172.748 77.4468 173.124 74.714 176.498C64.1377 188.916 49.5453 204.976 37.8704 218.187C44.2912 211.912 83.4448 171.261 80.5968 175.293C80.8155 175.291 81.0303 175.379 81.1845 175.532C81.9378 176.669 80.5604 177.247 79.9184 178.264C68.246 191.626 52.7087 208.763 40.5554 222.678C44.3725 218.814 48.7497 214.367 53.0712 209.975C83.7991 178.751 84.0188 178.75 84.672 178.748C86.316 179.346 85.6485 179.861 83.2355 182.8C72.1764 195.688 56.6706 212.687 44.7242 226.217C50.1794 220.698 56.7356 213.989 62.6194 207.969C87.4762 182.533 87.6556 182.532 88.3226 182.528C88.5443 182.532 88.7621 182.618 88.9158 182.771C89.5661 183.422 89.1044 183.971 86.887 186.613C76.4265 198.84 62.0888 214.549 50.5592 227.576C54.1147 223.962 57.9914 220.006 61.703 216.219C89.2488 188.108 90.6873 186.856 91.4248 186.853C93.0895 187.433 92.3653 188.075 90.0134 190.997C79.2883 203.669 64.1939 220.182 52.5077 233.479C62.7391 223.286 96.8963 187.383 94.8522 191.026C95.072 191.023 95.2986 191.115 95.4528 191.269C96.0814 191.897 95.7824 192.341 93.1452 195.534C83.9267 206.525 71.7734 220.097 61.2882 232.062C73.3252 219.999 97.3249 194.747 96.3056 197.113C97.4416 197.255 97.2771 198.311 96.5302 199.053C87.656 209.781 76.1501 222.84 66.3424 234.314C68.5027 232.11 70.7506 229.811 72.9257 227.588C96.4209 203.344 98.8772 201.227 97.4574 205.557C89.6868 215.237 79.3041 227.351 70.7955 237.641C75.4446 233.123 99.5679 207.832 97.8633 210.573C98.0816 210.572 98.2949 210.659 98.4486 210.813C99.1955 211.923 97.8101 212.634 97.2007 213.722C92.1239 220.285 85.513 228.495 79.7283 235.774C95.7976 219.386 97.2628 217.675 96.7795 221.086C95.3326 222.125 87.0974 230.633 80.586 237.226C70.9994 246.987 70.9994 246.987 70.5437 246.989C69.2707 246.605 69.4323 246.137 70.8309 244.395C76.2718 237.425 83.4921 228.472 89.433 220.969C87.9748 222.458 86.4421 224.024 84.9228 225.578C62.779 248.213 62.5351 248.214 61.8829 248.218C61.674 248.223 61.4409 248.128 61.2872 247.974C60.6488 247.335 60.6488 247.335 67.0557 239.594C72.8592 232.583 81.3422 222.49 87.7511 214.804C83.5409 219.065 78.5686 224.149 74.0913 228.728C54.7143 248.541 54.6049 248.541 53.9974 248.545C53.9955 248.545 53.994 248.545 53.9925 248.545ZM95.6277 221.089C95.7316 221.192 95.8484 221.256 95.9651 221.29C95.842 221.254 95.7257 221.186 95.6277 221.089ZM27.1045 184.062C27.3124 184.062 27.5198 184.14 27.6789 184.299C27.3991 184.02 27 184.007 26.7345 184.15C26.8507 184.091 26.9773 184.062 27.1045 184.062Z" fill="#3B67F6"/>
</g>
</g>
<g id="elemen-lingkaran-tengah_2" opacity="0.8">
<g id="Group_8">
<path id="Vector_18" d="M252.531 83.4573C251.031 83.011 252.725 81.7326 253.324 80.8709C259.625 73.3811 268.137 63.6216 275.025 55.5859C272.518 58.1349 269.752 60.9613 267.111 63.66C248.81 82.4765 247.037 84.1746 248.072 80.8734C256.011 71.4519 266.96 59.3917 275.328 49.6721C267.145 57.5974 250.734 75.8212 243.658 81.3468C242.457 80.9423 242.968 80.4546 244.532 78.5421C252.494 69.1881 263.898 56.7171 272.51 46.8783C265.512 53.8203 238.205 82.2011 240.343 79.0698C240.182 79.0712 240.022 79.0062 239.909 78.8929C239.113 77.644 243.754 73.7732 245.46 71.407C251.921 64.0714 261.581 53.3532 268.534 45.5112C216.058 99.8341 238.613 72.4145 266.174 42.3434C262.052 46.4989 257.132 51.4984 252.708 55.9938C235.006 73.9811 234.95 73.9816 234.517 73.9836C233.548 73.822 233.87 72.9751 234.545 72.1992C241.635 63.5098 250.731 53.6276 258.898 44.3702C252.965 50.182 235.646 68.7285 232.216 70.769C230.698 70.3035 232.393 69.0152 233.01 68.1496C241.045 58.8291 252.541 46.1861 261.072 36.4581C215.545 83.8854 224.275 71.2356 256.155 36.029C208.679 84.8067 229.417 60.3992 253.855 32.7731C250.064 36.4049 226.809 60.6499 227.666 59.001C226.144 58.5315 227.928 57.189 228.532 56.2727C234.007 49.6115 241.253 41.1615 247.394 33.888C218.509 64.2103 222.857 56.8516 242.099 33.7806C222.871 54.0947 225.336 49.2519 234.964 35.4467C233.102 37.3346 233.059 37.3351 232.804 37.3361C232.223 37.3548 231.976 36.535 232.478 36.2335C233.078 35.8113 238.571 29.7679 238.579 30.3571C241.131 30.2877 231.865 41.4542 231.166 43.2262C233.943 40.594 249.63 23.9925 248.706 25.7183C249.725 26.0223 249.462 26.4514 248.358 27.8613C243.876 33.5889 237.838 40.8866 232.926 46.999C235.236 44.6485 237.927 41.8852 240.474 39.2702C254.722 24.6389 254.867 24.6379 255.347 24.6345C256.12 24.6832 256.064 25.5296 255.601 25.938C249.855 32.9618 242.292 41.6985 235.985 49.2135C278.966 4.71498 256.341 32.5918 238.507 52.2255C287.277 2.0581 259.015 35.2201 238.22 58.1285C241.538 54.7568 245.424 50.7683 249.1 46.9955C267.405 28.2106 268.384 27.3736 268.951 27.3697C269.111 27.3687 269.278 27.4362 269.392 27.5495C269.859 28.0165 269.634 28.3239 267.736 30.5906C259.976 39.7033 249.267 51.4875 240.701 61.1825C245.412 56.5776 274.143 26.7474 272.054 29.7063C272.214 29.7048 272.372 29.7694 272.485 29.8822C273.166 31.0124 269.965 33.3313 268.817 35.0176C261.19 43.6376 250.566 55.4564 242.671 64.4778C296.626 8.93505 274.04 36.0561 245.73 67.0746C249.733 63.025 254.544 58.1019 258.862 53.6843C277.102 35.0196 277.233 35.0191 277.723 35.0161C277.886 35.0191 278.045 35.0817 278.159 35.1945C278.905 36.5532 274.148 40.5137 272.345 43.0095C266.099 50.1061 256.855 60.3696 250.012 68.0727C302.182 14.1488 276.919 44.5431 251.442 72.4046C291.694 30.2852 293.095 32.1193 257.885 71.3651C298.487 29.2309 285.456 45.9644 261.594 73.017C299.703 33.4461 282.988 54.2947 264.861 75.4586C268.281 72.1376 285.967 53.5853 284.727 55.5963C286.716 56.1042 282.495 59.6725 281.592 61.2943C278.765 64.8779 274.689 69.9798 271.416 74.0885C283.207 62.0629 284.284 60.8081 283.928 63.3107C282.866 64.0729 276.823 70.3168 272.045 75.1546C265.011 82.3173 265.011 82.3173 264.676 82.3188C264.516 82.3193 264.362 82.2562 264.249 82.1429C263.856 81.7498 264.014 81.5458 264.887 80.4147C268.879 75.3 274.178 68.7304 278.537 63.225C266.421 75.4827 258.401 84.051 258.322 83.2199C258.167 83.2243 257.997 83.1548 257.884 83.0415C257.415 82.5725 257.415 82.5725 262.117 76.8917C266.376 71.7469 272.6 64.3409 277.303 58.701C274.214 61.8279 270.565 65.5587 267.28 68.9181C253.061 83.4568 252.981 83.4573 252.535 83.4598C252.533 83.4573 252.532 83.4573 252.531 83.4573ZM283.083 63.3103C283.159 63.3861 283.245 63.4329 283.331 63.458C283.24 63.431 283.155 63.3817 283.083 63.3103ZM232.8 36.1389C232.952 36.1389 233.105 36.197 233.222 36.3128C233.016 36.1084 232.724 36.0995 232.528 36.2039C232.614 36.1606 232.707 36.1389 232.8 36.1389Z" fill="#3B67F6"/>
</g>
</g>
<g id="elemen-lingkaran-kanan_2" opacity="0.8">
<g id="Group_9">
<path id="Vector_19" d="M470.117 231.161C469.121 230.865 470.246 230.015 470.645 229.442C474.832 224.464 480.49 217.977 485.068 212.637C452.597 246.145 471.37 224.171 485.269 208.706C479.832 213.974 468.923 226.082 464.223 229.758C463.422 229.493 463.761 229.166 464.801 227.894C470.093 221.678 477.673 213.389 483.396 206.85C451.409 239.975 458.734 230.091 480.754 205.941C446.179 241.758 460.901 223.75 479.186 203.836C474.831 208.158 456.427 227.149 458.146 224.865C458.04 224.873 457.935 224.823 457.86 224.748C457.471 223.92 458.695 223.232 459.281 222.299C463.621 217.171 469.374 210.782 474.35 205.183C470.409 209.046 458.895 221.37 456.618 222.728C455.606 222.422 456.732 221.563 457.144 220.987C462.484 214.793 470.124 206.39 475.795 199.924C445.779 231.226 451.451 222.877 472.526 199.639C441.141 231.897 454.768 215.804 470.998 197.475C468.481 199.888 453.02 216.001 453.593 214.907C452.579 214.598 453.764 213.703 454.167 213.093C457.805 208.666 462.622 203.05 466.703 198.216C447.609 218.283 450.443 213.394 463.184 198.144C450.453 211.614 452.067 208.37 458.442 199.251C457.204 200.506 457.175 200.506 457.006 200.507C456.662 200.518 456.47 200.066 456.723 199.828C457.275 199.433 460.788 195.519 460.845 195.868C462.394 196.17 456.471 203.029 455.917 204.421C475.421 184.063 467.687 194.153 457.087 206.928C480.851 182.136 472.79 192.71 459.12 208.4C487.512 178.99 472.653 197.371 460.797 210.401C492.884 177.376 474.45 199.109 460.606 214.324C493.736 179.851 481.497 195.332 462.255 216.354C465.392 213.291 484.476 193.466 483.095 195.434C484.005 195.678 483.133 196.424 482.762 196.883C477.069 203.4 469.491 211.758 463.564 218.544C499.156 181.885 484.38 199.718 465.597 220.27C496.915 187.715 490.57 196.705 468.443 220.933C502.815 185.382 486.314 205.341 469.393 223.812C496.019 195.924 496.959 197.194 473.675 223.121C500.426 195.334 491.946 206.333 476.14 224.218C501.305 198.072 490.352 211.81 478.312 225.841C480.582 223.635 492.343 211.303 491.513 212.64C493.381 212.793 483.655 223.143 482.669 224.931C490.765 216.932 490.042 216.948 490.984 217.205C491.22 218.212 486.148 222.116 483.087 225.64C478.412 230.4 478.412 230.4 478.189 230.401C477.569 230.213 477.647 229.985 478.329 229.135C480.983 225.736 484.505 221.37 487.402 217.71C463.196 242.824 476.353 226.585 486.582 214.703C484.528 216.782 482.104 219.261 479.92 221.494C470.469 231.157 470.416 231.157 470.12 231.159C470.119 231.161 470.117 231.161 470.117 231.161ZM490.423 217.771C490.474 217.821 490.53 217.852 490.588 217.869C490.528 217.851 490.471 217.818 490.423 217.771ZM457.003 199.712C457.105 199.712 457.206 199.75 457.284 199.827C457.147 199.691 456.953 199.685 456.823 199.755C456.88 199.726 456.942 199.712 457.003 199.712Z" fill="#3B67F6"/>
</g>
</g>
<g id="elemen-garis" opacity="0.5">
<path id="Vector_20" opacity="0.5" d="M13.4336 158.404C42.041 141.544 72.2609 127.304 103.499 116.04C74.9025 132.921 44.6629 147.118 13.4336 158.404Z" fill="#3B67F6"/>
<path id="Vector_21" opacity="0.5" d="M144.1 63.3101C173.211 47.3487 203.3 33.1785 234.165 20.9463C205.061 36.9221 174.958 51.0638 144.1 63.3101Z" fill="#3B67F6"/>
<path id="Vector_22" opacity="0.5" d="M453 252.5C471.85 242.048 491.389 232.845 511.465 225C492.619 235.463 473.072 244.645 453 252.5Z" fill="#3B67F6"/>
</g>
<g id="elemen-folder">
<path id="Vector_23" d="M352.032 362.206H170.778C162.307 362.206 155.439 355.338 155.439 346.867V214.647C155.439 206.176 162.307 199.308 170.778 199.308H352.032C360.503 199.308 367.371 206.176 367.371 214.647V346.867C367.371 355.338 360.504 362.206 352.032 362.206Z" fill="#DBE8FE"/>
<path id="Vector_24" d="M380.681 244.116V357.098C380.681 365.569 373.813 372.437 365.342 372.437H157.472C149 372.437 142.133 365.569 142.133 357.098V204.419C142.133 195.948 149 189.08 157.472 189.08H253.633C259.035 189.08 264.038 191.922 266.805 196.56L281.566 221.298C284.334 225.936 289.337 228.777 294.738 228.777H365.342C373.814 228.777 380.681 235.644 380.681 244.116Z" fill="#1D49D8"/>
</g>
<g id="elemen-wanita">
<path id="Vector_25" d="M202.13 106.999C201.93 102.77 198.719 98.4661 195.968 100.056C194.783 88.4573 184.77 99.0046 178.956 101.865C174.65 104.51 169.625 103.87 164.863 104.532C160.917 105.38 156.069 109.543 157.085 114.043C157.345 115.185 157.18 116.327 156.735 117.412C156.549 117.905 154.635 123.259 158.621 124.551C162.779 125.879 159.3 129.784 164.041 132.565C168.783 135.345 167.491 131.86 170.983 134.644C174.475 137.427 175.406 135.114 175.406 135.114C176.569 130.723 178.525 130.078 184.242 128.103C184.974 128.713 185.968 129.186 187.498 129.297C192.98 129.696 190.281 127.141 194.644 128.095C199.007 129.05 198.819 126.562 198.819 126.562C198.629 123.131 197.68 122.168 202.161 117.986C207.872 112.653 202.33 111.227 202.13 106.999Z" fill="#1825A3"/>
<path id="Vector_26" d="M193.371 118.777C193.371 118.777 191.772 128.232 194.675 129.6C194.675 129.6 189.612 134.616 185.311 127.031C185.311 127.031 186.694 121.772 185.982 117.793L193.371 118.777Z" fill="#FEB3B1"/>
<path id="Vector_27" d="M239.92 230.616C239.92 230.616 244.898 232.775 248.892 230.524C249.614 234.893 235.917 238.624 231.803 237.5C231.422 231.25 234.326 229.766 239.92 230.616Z" fill="#DBE8FE"/>
<path id="Vector_28" d="M239.39 227.034C239.39 227.034 239.976 230.314 239.563 230.592C239.15 230.87 235.45 232.445 233.236 231.536L233.329 228.721L237.258 226.224L239.39 227.034Z" fill="#FEB3B1"/>
<path id="Vector_29" d="M184.988 183.371C185.414 192.653 189.614 194.237 198.134 192.071C206.169 191.303 218.22 186.482 224.415 189.337C224.415 189.337 222.643 197.344 227.327 207.15C232.012 216.957 233.331 228.72 233.331 228.72C233.331 228.72 236.236 228.607 239.39 227.034C239.39 227.034 239.887 207.61 238.445 192.744C237.906 187.212 237.101 182.312 235.903 179.279C231.483 168.092 200.852 172.66 200.852 172.66C199.502 171.983 192.006 168.227 190.841 167.641L184.813 175.504C183.852 176.758 184.825 181.941 184.988 183.371Z" fill="#93ACFD"/>
<path id="Vector_30" opacity="0.5" d="M190.891 174.781L196.463 192.381C203.65 191.199 213.31 188.901 219.371 188.466C209.417 178.558 194.699 174.112 194.699 174.112L190.891 174.781Z" fill="#93ACFD"/>
<path id="Vector_31" d="M197.584 246.074C197.584 246.074 200.612 250.577 205.189 250.836C203.44 254.904 189.894 250.66 187.035 247.494C190.086 242.025 193.332 242.342 197.584 246.074Z" fill="#DBE8FE"/>
<path id="Vector_32" d="M199.069 242.773C199.069 242.773 197.793 245.851 197.295 245.862C196.798 245.874 192.833 245.204 191.459 243.245L193.055 240.924L197.711 240.941L199.069 242.773Z" fill="#FEB3B1"/>
<path id="Vector_33" d="M179.391 192.875C189.884 195.878 193.558 195.248 196.224 196.352C201.934 198.722 206.599 201.024 206.79 202.953C206.79 202.953 200.977 208.739 199.635 219.523C198.292 230.306 193.057 240.924 193.057 240.924C193.057 240.924 195.564 242.396 199.07 242.773C199.07 242.773 209.962 226.683 216.766 213.385C219.296 208.438 221.261 203.878 221.888 200.676C224.197 188.873 195.941 176.201 195.941 176.201C195.169 174.902 190.884 167.695 190.217 166.575C190.217 166.575 180.902 169.944 180.9 169.945C179.414 170.483 177.439 175.37 176.805 176.665C176.594 177.024 169.025 189.905 179.391 192.875Z" fill="#93ACFD"/>
<path id="Vector_34" d="M201.675 133.385C201.269 133.939 218.955 152.608 213.474 158.815C210.886 160.697 208.814 158.888 207.6 156.5C199.784 146.99 200.771 143.093 201.675 133.385Z" fill="#93ACFD"/>
<path id="Vector_35" d="M203.515 144.078C204.794 130.133 199.732 133.657 193.19 127.173C193.207 127.201 193.259 127.287 193.333 127.417C193.237 127.251 193.182 127.163 193.182 127.163C193.567 127.816 193.96 130.579 191.748 130.325C187.207 130.139 185.311 127.138 185.311 127.138C181.805 127.057 174.904 132.236 174.904 132.236C171.447 139.928 178.154 171.615 179.116 173.677C182.223 174.75 185.089 175.312 187.662 175.542C191.719 175.905 195.044 175.44 197.437 174.842C197.437 174.842 197.436 174.842 197.436 174.841C199.386 174.34 200.6 173.865 201.678 173.305C200.547 166.261 202.519 150.591 203.515 144.078Z" fill="#3B67F6"/>
<path id="Vector_36" opacity="0.5" d="M201.703 172.677C198.902 175.5 191.123 177.324 179.117 173.676C179.172 174.204 175.702 160.034 174.71 151.183C174.632 151.386 174.552 151.587 174.469 151.791C173.5 150.277 174.522 145.724 176.124 145.851C177.06 146.783 176.656 149.212 179.343 150.041C181.674 138.879 182.081 151.735 185.879 151.684C188.833 152.047 192.744 152.2 197.926 151.955C197.721 152.005 191.542 153.462 185.565 153.095C184.761 153.046 184.417 154.096 185.101 154.522C186.694 155.498 197.449 153.872 197.449 153.872L201.551 157.397C190.607 164.968 183.559 165.503 180.204 165.089C181.326 168.806 182.888 171.769 185.193 172.446C192.306 174.521 197.858 174.715 201.703 172.677Z" fill="#3B67F6"/>
<path id="Vector_37" d="M192.36 157.14C192.383 157.168 193.494 158.509 193.52 158.54C193.309 158.266 193.272 157.874 193.392 157.529L193.544 156.937L199.431 134.07C198.776 132.377 218.399 133.965 218.849 133.605C219.272 133.654 219.964 133.51 220.326 133.793C219.825 133.35 219.371 132.15 218.582 132.178L199.256 131.855C198.777 131.846 198.357 132.168 198.239 132.628L192.161 156.235C192.077 156.569 192.163 156.897 192.36 157.14Z" fill="#FCBB4D"/>
<path id="Vector_38" d="M193.519 158.54C193.702 158.794 193.995 158.961 194.338 158.967L211.934 159.242C212.383 159.248 212.788 158.962 212.93 158.534L220.736 134.978C220.961 134.309 220.452 133.627 219.774 133.62C219.622 133.645 219.014 133.587 218.848 133.605L200.447 133.297C199.969 133.288 199.549 133.61 199.43 134.07L193.543 156.937L193.391 157.529C193.275 157.871 193.306 158.268 193.519 158.54Z" fill="#FCBB4D"/>
<path id="Vector_39" opacity="0.6" d="M220.737 134.98L212.928 158.536C212.787 158.96 212.382 159.246 211.935 159.241C211.402 158.797 192.332 160.009 193.32 157.971C198.249 158.131 206.158 158.165 211.137 158.277C212.75 158.55 219.332 134.885 219.99 133.647C220.566 133.781 220.931 134.389 220.737 134.98Z" fill="#FCBB4D"/>
<path id="Vector_40" d="M205.248 156.301C204.825 156.488 204.403 156.672 203.977 156.852C202.172 155.463 202.1 152.819 202.1 152.819C202.475 152.732 202.799 152.658 203.056 152.598C203.056 152.598 203.686 154.323 205.248 156.301Z" fill="#FEB3B1"/>
<path id="Vector_41" d="M205.053 156.38C205.053 156.38 206.567 155.932 207.242 155.851C207.696 156.172 213.431 151.673 209.812 153.267C208.129 154.375 206.79 154.502 205.229 155.099L205.053 156.38Z" fill="#FEB3B1"/>
<path id="Vector_42" d="M205.668 155.239C205.668 155.239 207.22 154.551 207.929 154.369C208.458 154.648 213.948 149.051 210.31 151.255C208.748 152.993 207.44 153.182 205.677 153.848L205.668 155.239Z" fill="#FEB3B1"/>
<path id="Vector_43" d="M205.763 154.246C205.763 154.246 207.208 153.354 207.885 153.079C208.448 153.284 213.129 146.995 209.823 149.672C208.511 151.604 207.241 151.968 205.584 152.867L205.763 154.246Z" fill="#FEB3B1"/>
<path id="Vector_44" d="M206.083 153.675C206.083 153.675 207.133 152.341 207.675 151.85C208.274 151.849 210.51 144.335 208.325 147.984C207.756 150.25 206.688 151.028 205.441 152.441L206.083 153.675Z" fill="#FEB3B1"/>
<path id="Vector_45" d="M206.282 151.502C204.501 152.83 205.408 147.332 203.967 148.35C203.84 148.592 204.491 149.229 203.993 149.976C203.495 150.724 203.711 151.754 203.018 152.38C202.237 155.533 206.171 158.879 207.16 153.437L206.282 151.502Z" fill="#FEB3B1"/>
<path id="Vector_46" d="M203.978 156.852C198.943 158.391 182.525 167.06 178.828 162.818C176.229 159.316 175.467 154.181 173.935 150.001C172.163 143.908 169.49 136.147 175.792 131.698C175.946 132.045 184.216 149.848 183.765 157C186.362 156.376 196.924 153.992 202.1 152.818C202.1 152.818 202.172 155.462 203.978 156.852Z" fill="#3B82F6"/>
<g id="Group_10">
<path id="Vector_47" d="M197.762 109.909C195.174 114.289 198.725 122.081 190.993 125.552C189.113 125.041 180.443 122.527 181.384 115.191C181.246 113.86 179.431 112.971 180.52 110.959C181.61 108.948 182.412 110.439 182.412 110.439C182.412 110.439 182.825 108.83 183.285 107.496C183.745 106.161 197.762 109.909 197.762 109.909Z" fill="#FEB3B1"/>
</g>
<path id="Vector_48" d="M197.763 109.909C197.763 109.909 192.901 117.739 181.981 110.481C171.062 103.223 190.676 105.424 190.676 105.424L197.763 109.909Z" fill="#1825A3"/>
</g>
<g id="elemen-kotak">
<g id="elemen-kotak-atas">
<path id="Vector_49" d="M255.751 135.324H244.763C243.245 135.324 242.016 134.095 242.016 132.577V121.589C242.016 120.071 243.246 118.842 244.763 118.842H255.751C257.269 118.842 258.498 120.072 258.498 121.589V132.577C258.498 134.094 257.269 135.324 255.751 135.324Z" fill="#3B67F6"/>
<path id="Vector_50" d="M277.724 135.324H266.735C265.218 135.324 263.988 134.095 263.988 132.577V121.589C263.988 120.071 265.218 118.842 266.735 118.842H277.724C279.241 118.842 280.471 120.072 280.471 121.589V132.577C280.471 134.094 279.241 135.324 277.724 135.324Z" fill="#3B67F6"/>
<path id="Vector_51" d="M299.693 135.324H288.704C287.187 135.324 285.957 134.095 285.957 132.577V121.589C285.957 120.071 287.187 118.842 288.704 118.842H299.693C301.21 118.842 302.44 120.072 302.44 121.589V132.577C302.44 134.094 301.21 135.324 299.693 135.324Z" fill="#3B67F6"/>
<path id="Vector_52" d="M321.663 135.324H310.675C309.157 135.324 307.928 134.095 307.928 132.577V121.589C307.928 120.071 309.158 118.842 310.675 118.842H321.663C323.181 118.842 324.41 120.072 324.41 121.589V132.577C324.41 134.094 323.181 135.324 321.663 135.324Z" fill="#3B67F6"/>
<path id="Vector_53" d="M343.632 135.324H332.644C331.126 135.324 329.896 134.095 329.896 132.577V121.589C329.896 120.071 331.127 118.842 332.644 118.842H343.632C345.15 118.842 346.379 120.072 346.379 121.589V132.577C346.379 134.094 345.15 135.324 343.632 135.324Z" fill="#3B67F6"/>
</g>
<g id="elemen-kotak-bawah">
<path id="Vector_54" d="M255.751 158.593H244.763C243.245 158.593 242.016 157.363 242.016 155.846V144.858C242.016 143.34 243.246 142.111 244.763 142.111H255.751C257.269 142.111 258.498 143.341 258.498 144.858V155.846C258.498 157.363 257.269 158.593 255.751 158.593Z" fill="#3B67F6"/>
<path id="Vector_55" opacity="0.5" d="M277.724 158.593H266.735C265.218 158.593 263.988 157.363 263.988 155.846V144.858C263.988 143.34 265.218 142.111 266.735 142.111H277.724C279.241 142.111 280.471 143.341 280.471 144.858V155.846C280.471 157.363 279.241 158.593 277.724 158.593Z" fill="#3B67F6"/>
<path id="Vector_56" opacity="0.5" d="M299.693 158.593H288.704C287.187 158.593 285.957 157.363 285.957 155.846V144.858C285.957 143.34 287.187 142.111 288.704 142.111H299.693C301.21 142.111 302.44 143.341 302.44 144.858V155.846C302.44 157.363 301.21 158.593 299.693 158.593Z" fill="#3B67F6"/>
<path id="Vector_57" opacity="0.5" d="M321.663 158.593H310.675C309.157 158.593 307.928 157.363 307.928 155.846V144.858C307.928 143.34 309.158 142.111 310.675 142.111H321.663C323.181 142.111 324.41 143.341 324.41 144.858V155.846C324.41 157.363 323.181 158.593 321.663 158.593Z" fill="#3B67F6"/>
<path id="Vector_58" opacity="0.5" d="M343.632 158.593H332.644C331.126 158.593 329.896 157.363 329.896 155.846V144.858C329.896 143.34 331.127 142.111 332.644 142.111H343.632C345.15 142.111 346.379 143.341 346.379 144.858V155.846C346.379 157.363 345.15 158.593 343.632 158.593Z" fill="#3B67F6"/>
</g>
</g>
</g>
</svg>
